<?xml version="1.0" encoding="UTF-8"?>
<svg xmlns="http://www.w3.org/2000/svg" version="1.1" viewBox="0 0 292.5 120">
  <defs>
    <style>
      .cls-1 {
        fill: #d4a843;
      }

      .cls-2 {
        fill: #c4b5fd;
      }

      .cls-3 {
        fill: #a78bfa;
      }

      .cls-4 {
        fill: #e8e4ec;
      }

      .cls-5 {
        isolation: isolate;
      }

      .cls-6 {
        fill: #6b3fa0;
      }

      .cls-7 {
        fill: #8b5cf6;
      }
    </style>
  </defs>
  <!-- Generator: Adobe Illustrator 28.6.0, SVG Export Plug-In . SVG Version: 1.2.0 Build 709)  -->
  <g>
    <g id="Layer_1">
      <g>
        <rect class="cls-2" x="18" y="22" width="10" height="82" rx="2" ry="2"/>
        <rect class="cls-3" x="32" y="36" width="10" height="68" rx="2" ry="2"/>
        <rect class="cls-7" x="46" y="16" width="10" height="88" rx="2" ry="2"/>
        <rect class="cls-6" x="60" y="42" width="10" height="62" rx="2" ry="2"/>
        <rect class="cls-1" x="18" y="56" width="52" height="4" rx="1.5" ry="1.5"/>
      </g>
      <g class="cls-5">
        <path class="cls-4" d="M128.2,42.2h-2.7c-.5-1.9-1.5-3.9-3.1-6-1.6-2.1-3.1-3.3-4.5-3.5-.7,0-1.6-.2-2.6-.2-1,0-2.1,0-3.4,0h-8.4v20.2h5.8c1.7,0,3.1-.2,4.1-.5s1.8-.9,2.5-1.7c.5-.5.9-1.3,1.3-2.4.4-1.1.6-2.3.8-3.5h2.7v19.7h-2.7c0-1-.3-2.2-.7-3.5-.4-1.3-.9-2.3-1.3-2.9-.7-.9-1.6-1.5-2.7-1.8s-2.4-.5-3.9-.5h-5.8v17.3c0,.8.2,1.5.5,2.1.3.6.8,1.1,1.6,1.5.4.2,1.1.4,2.3.6,1.2.2,2.1.4,2.7.4v2.5h-21.8v-2.5c.7,0,1.7-.1,2.8-.2,1.2-.1,1.9-.2,2.3-.4.7-.3,1.2-.8,1.5-1.4s.5-1.3.5-2.2v-36.2c0-.8-.1-1.5-.4-2.1-.3-.6-.8-1.1-1.6-1.5-.6-.3-1.5-.6-2.6-.8-1.1-.2-1.9-.4-2.6-.4v-2.5h39.4v12.6Z"/>
        <path class="cls-4" d="M178.9,79.9h-20.9v-2.5c1.8-.1,3.4-.4,4.6-.7s1.8-.8,1.8-1.3,0-.5,0-.8c0-.3-.1-.6-.2-.8l-4.2-11.2h-17.6c-.7,1.7-1.2,3.1-1.6,4.3-.4,1.2-.8,2.4-1.1,3.4-.3,1-.5,1.8-.6,2.5s-.2,1.2-.2,1.6c0,.9.7,1.7,2.2,2.2s3.2.8,5,.9v2.5h-18.9v-2.5c.6,0,1.4-.2,2.3-.4s1.7-.5,2.3-.9c.9-.6,1.7-1.3,2.2-2,.5-.7,1-1.7,1.5-2.9,2.5-6.3,5.3-13.4,8.3-21.2s5.8-14.8,8.1-21h2.8l16.7,43.3c.4.9.8,1.7,1.2,2.2.4.6,1.1,1.1,1.9,1.7.5.3,1.2.6,2.1.8.9.2,1.6.3,2.2.4v2.5ZM158.7,59.3l-7.6-19.5-7.5,19.5h15.1Z"/>
        <path class="cls-4" d="M226.5,32.2c-.6,0-1.4.2-2.2.4-.9.2-1.6.5-2.2.9-.8.5-1.4,1.1-1.9,1.9-.5.8-1,1.7-1.4,2.8-1.6,3.7-4,9.6-7.1,17.5-3.2,7.9-6.4,16.2-9.8,24.8h-2.9c-3.4-9.1-6.7-17.9-9.8-26.4-3.2-8.5-5.3-14.2-6.4-17.2-.3-.7-.7-1.4-1.1-1.9-.5-.6-1.1-1.1-1.9-1.6-.6-.4-1.3-.7-2.1-.9s-1.5-.3-2.2-.4v-2.5h20.8v2.5c-1.8,0-3.3.3-4.5.5s-1.8.7-1.8,1.4,0,.6.1.9c0,.4.2.6.2.8.9,2.3,2.3,6.1,4.2,11.3,2,5.2,4.7,12.7,8.3,22.3,1.8-4.4,3.9-9.5,6.2-15.5s3.9-10,4.7-12.2c.8-2.1,1.2-3.6,1.4-4.5.1-.8.2-1.5.2-2s-.2-1-.7-1.4c-.5-.4-1.1-.7-1.9-.9-.8-.2-1.6-.4-2.4-.5-.8-.1-1.6-.2-2.4-.3v-2.5h18.7v2.5Z"/>
        <path class="cls-4" d="M274.8,79.9h-20.9v-2.5c1.8-.1,3.4-.4,4.6-.7s1.8-.8,1.8-1.3,0-.5,0-.8-.1-.6-.2-.8l-4.2-11.2h-17.6c-.7,1.7-1.2,3.1-1.6,4.3s-.8,2.4-1.1,3.4c-.3,1-.5,1.8-.6,2.5s-.2,1.2-.2,1.6c0,.9.7,1.7,2.2,2.2s3.2.8,5,.9v2.5h-18.9v-2.5c.6,0,1.4-.2,2.3-.4s1.7-.5,2.3-.9c.9-.6,1.7-1.3,2.2-2s1-1.7,1.5-2.9c2.5-6.3,5.3-13.4,8.3-21.2,3-7.9,5.8-14.8,8.1-21h2.8l16.7,43.3c.4.9.8,1.7,1.2,2.2s1.1,1.1,1.9,1.7c.5.3,1.3.6,2.1.8s1.6.3,2.2.4v2.5ZM254.6,59.3l-7.6-19.5-7.5,19.5h15.1Z"/>
      </g>
      <g class="cls-5">
        <path class="cls-3" d="M102.8,90.9c-.3-1.5-1-2.6-1.9-3.2-.9-.6-2.2-1-3.7-1s-2,.2-2.8.6c-.8.4-1.4,1-1.9,1.7-.5.7-.9,1.6-1.1,2.5-.2.9-.4,2-.4,3s.1,2,.3,2.9.5,1.8,1,2.6c.5.7,1.1,1.4,1.9,1.8.8.5,1.8.7,3,.7s1.5-.1,2.1-.4c.6-.2,1.2-.6,1.6-1,.5-.4.9-1,1.2-1.5.3-.6.6-1.2.7-2h1.8c-.2.9-.5,1.7-.9,2.4-.4.8-.9,1.4-1.5,2-.6.6-1.4,1-2.3,1.4-.9.3-1.9.5-3.1.5s-2.5-.3-3.5-.8c-1-.5-1.8-1.2-2.4-2-.6-.9-1.1-1.9-1.4-3-.3-1.1-.4-2.3-.4-3.6s.2-3.1.6-4.3c.4-1.2,1-2.2,1.7-2.9s1.6-1.3,2.6-1.6c1-.3,2.1-.5,3.3-.5s1.8.1,2.5.4c.8.2,1.5.6,2.1,1.1s1.1,1.1,1.5,1.8c.4.7.7,1.5.8,2.4h-1.7Z"/>
        <path class="cls-3" d="M120.8,103.5l7-17.8h1.9l6.8,17.8h-1.7l-2.1-5.6h-8.1l-2.1,5.6h-1.7ZM125.3,96.5h7l-3.5-9.4-3.5,9.4Z"/>
        <path class="cls-3" d="M153.4,103.5v-17.8h6.5c1.2,0,2.1.1,2.9.4.8.3,1.3.6,1.8,1.1s.7,1,.9,1.6c.2.6.3,1.2.3,1.9,0,1-.2,1.8-.6,2.5-.4.6-.9,1.2-1.6,1.5-.6.4-1.4.6-2.2.8s-1.6.2-2.5.2h-3.8v7.9h-1.7ZM158.9,94.2c.8,0,1.5,0,2.1-.1.6,0,1.2-.3,1.6-.6.4-.3.8-.6,1-1.1.2-.5.4-1.1.4-1.8,0-1.1-.4-2-1.1-2.6-.7-.6-1.9-.9-3.5-.9h-4.4v7.1h3.9Z"/>
        <path class="cls-3" d="M183.6,103.5v-17.8h1.7v17.8h-1.7Z"/>
        <path class="cls-3" d="M202.7,85.7h13v1.4h-5.6v16.4h-1.7v-16.4h-5.6v-1.4Z"/>
        <path class="cls-3" d="M230.9,103.5l7-17.8h1.9l6.8,17.8h-1.7l-2.1-5.6h-8.1l-2.1,5.6h-1.7ZM235.3,96.5h7l-3.5-9.4-3.5,9.4Z"/>
        <path class="cls-3" d="M263.5,103.5v-17.8h1.7v16.4h9.6v1.4h-11.2Z"/>
      </g>
    </g>
  </g>
</svg>